<svg width="254" height="44" viewBox="0 0 254 44" fill="none" xmlns="http://www.w3.org/2000/svg">
<path d="M8.688 42.192H0V6.672H19.392V14.64H8.688V20.688H19.008V28.656H8.688V42.192Z" fill="#BB5500"/>
<path d="M51.1613 42.192H40.7933L32.5853 30.72H32.4893V42.192H23.8013V6.672H35.4173C39.1133 6.672 41.9453 7.152 43.8173 7.968C47.6573 9.696 50.3452 13.872 50.3452 18.912C50.3452 24.528 46.9853 29.136 41.5133 30.096L51.1613 42.192ZM32.4893 24.528H35.8493C39.4493 24.528 41.6572 22.848 41.6572 19.44C41.6572 16.368 39.3533 14.64 35.9453 14.64H32.4893V24.528Z" fill="#BB5500"/>
<path d="M72.7654 42.864C62.8774 42.864 53.6134 35.76 53.6134 25.248C53.6134 14.256 61.5334 6 72.3334 6C82.7014 6 91.1014 14.016 91.1014 24.192C91.1014 34.704 82.9414 42.864 72.7654 42.864ZM72.4774 34.896C78.0934 34.896 82.0294 30.144 82.0294 24.48C82.0294 18.912 78.0454 13.968 72.3334 13.968C66.6694 13.968 62.6854 18.72 62.6854 24.336C62.6854 30.192 66.6694 34.896 72.4774 34.896Z" fill="#BB5500"/>
<path d="M125.546 42.192H117.577L104.281 21.936L104.186 21.984V42.192H95.4975V6.672H103.321L116.761 27.648L116.857 27.552V14.64H111.721V6.672H125.546V42.192ZM136.105 42.192H127.034V6.672H142.057V14.64H136.105V42.192Z" fill="#BB5500"/>
<path d="M182.17 33.216V41.808C180.97 42.336 178.138 42.864 175.978 42.864C165.706 42.864 157.738 35.136 157.738 24.528C157.738 12.912 166.234 6 176.362 6C178.666 6 180.346 6.336 182.218 7.056V15.552C180.538 14.592 178.81 13.968 176.314 13.968C172.33 13.968 169.114 16.32 167.578 20.16H181.786V28.128H167.434C168.874 32.448 172.282 34.896 176.362 34.896C178.81 34.896 180.586 34.32 182.17 33.216Z" fill="#BB5500"/>
<path d="M216.662 42.192H207.59V20.928C207.59 16.56 205.718 14.016 201.926 14.016C198.662 14.016 196.598 16.512 196.598 20.208V42.192H187.526V6.672H196.118V10.224H196.262C197.942 7.536 201.158 6 204.806 6C212.342 6 216.662 10.368 216.662 19.728V42.192Z" fill="#BB5500"/>
<path d="M234.771 42.192H222.051V6.672H234.147C238.563 6.672 242.067 7.44 244.563 8.832C249.603 11.712 252.771 17.184 252.771 24.432C252.771 36.144 245.859 42.192 234.771 42.192ZM231.123 34.224H235.203C240.435 34.224 243.699 30.96 243.699 24.48C243.699 18.144 240.483 14.64 235.251 14.64H231.123V34.224Z" fill="#BB5500"/>
<path d="M8.688 38.192H0V2.672H19.392V10.64H8.688V16.688H19.008V24.656H8.688V38.192Z" fill="#FFDD00"/>
<path d="M51.1613 38.192H40.7933L32.5853 26.72H32.4893V38.192H23.8013V2.672H35.4173C39.1133 2.672 41.9453 3.152 43.8173 3.968C47.6573 5.696 50.3452 9.872 50.3452 14.912C50.3452 20.528 46.9853 25.136 41.5133 26.096L51.1613 38.192ZM32.4893 20.528H35.8493C39.4493 20.528 41.6572 18.848 41.6572 15.44C41.6572 12.368 39.3533 10.64 35.9453 10.64H32.4893V20.528Z" fill="#FFDD00"/>
<path d="M72.7654 38.864C62.8774 38.864 53.6134 31.76 53.6134 21.248C53.6134 10.256 61.5334 2 72.3334 2C82.7014 2 91.1014 10.016 91.1014 20.192C91.1014 30.704 82.9414 38.864 72.7654 38.864ZM72.4774 30.896C78.0934 30.896 82.0294 26.144 82.0294 20.48C82.0294 14.912 78.0454 9.968 72.3334 9.968C66.6694 9.968 62.6854 14.72 62.6854 20.336C62.6854 26.192 66.6694 30.896 72.4774 30.896Z" fill="#FFDD00"/>
<path d="M125.546 38.192H117.577L104.281 17.936L104.186 17.984V38.192H95.4975V2.672H103.321L116.761 23.648L116.857 23.552V10.64H111.721V2.672H125.546V38.192ZM136.105 38.192H127.034V2.672H142.057V10.64H136.105V38.192Z" fill="#FFDD00"/>
<path d="M182.17 29.216V37.808C180.97 38.336 178.138 38.864 175.978 38.864C165.706 38.864 157.738 31.136 157.738 20.528C157.738 8.912 166.234 2 176.362 2C178.666 2 180.346 2.336 182.218 3.056V11.552C180.538 10.592 178.81 9.968 176.314 9.968C172.33 9.968 169.114 12.32 167.578 16.16H181.786V24.128H167.434C168.874 28.448 172.282 30.896 176.362 30.896C178.81 30.896 180.586 30.32 182.17 29.216Z" fill="#FFDD00"/>
<path d="M216.662 38.192H207.59V16.928C207.59 12.56 205.718 10.016 201.926 10.016C198.662 10.016 196.598 12.512 196.598 16.208V38.192H187.526V2.672H196.118V6.224H196.262C197.942 3.536 201.158 2 204.806 2C212.342 2 216.662 6.368 216.662 15.728V38.192Z" fill="#FFDD00"/>
<path d="M234.771 38.192H222.051V2.672H234.147C238.563 2.672 242.067 3.44 244.563 4.832C249.603 7.712 252.771 13.184 252.771 20.432C252.771 32.144 245.859 38.192 234.771 38.192ZM231.123 30.224H235.203C240.435 30.224 243.699 26.96 243.699 20.48C243.699 14.144 240.483 10.64 235.251 10.64H231.123V30.224Z" fill="#FFDD00"/>
<mask id="mask0_406_2" style="mask-type:alpha" maskUnits="userSpaceOnUse" x="0" y="2" width="253" height="37">
<path d="M8.688 38.192H0V2.672H19.392V10.64H8.688V16.688H19.008V24.656H8.688V38.192Z" fill="#FFDD00"/>
<path d="M51.1613 38.192H40.7933L32.5853 26.72H32.4893V38.192H23.8013V2.672H35.4173C39.1133 2.672 41.9453 3.152 43.8173 3.968C47.6573 5.696 50.3452 9.872 50.3452 14.912C50.3452 20.528 46.9853 25.136 41.5133 26.096L51.1613 38.192ZM32.4893 20.528H35.8493C39.4493 20.528 41.6572 18.848 41.6572 15.44C41.6572 12.368 39.3533 10.64 35.9453 10.64H32.4893V20.528Z" fill="#FFDD00"/>
<path d="M72.7654 38.864C62.8774 38.864 53.6134 31.76 53.6134 21.248C53.6134 10.256 61.5334 2 72.3334 2C82.7014 2 91.1014 10.016 91.1014 20.192C91.1014 30.704 82.9414 38.864 72.7654 38.864ZM72.4774 30.896C78.0934 30.896 82.0294 26.144 82.0294 20.48C82.0294 14.912 78.0454 9.968 72.3334 9.968C66.6694 9.968 62.6854 14.72 62.6854 20.336C62.6854 26.192 66.6694 30.896 72.4774 30.896Z" fill="#FFDD00"/>
<path d="M125.546 38.192H117.577L104.281 17.936L104.186 17.984V38.192H95.4975V2.672H103.321L116.761 23.648L116.857 23.552V10.64H111.721V2.672H125.546V38.192ZM136.105 38.192H127.034V2.672H142.057V10.64H136.105V38.192Z" fill="#FFDD00"/>
<path d="M182.17 29.216V37.808C180.97 38.336 178.138 38.864 175.978 38.864C165.706 38.864 157.738 31.136 157.738 20.528C157.738 8.912 166.234 2 176.362 2C178.666 2 180.346 2.336 182.218 3.056V11.552C180.538 10.592 178.81 9.968 176.314 9.968C172.33 9.968 169.114 12.32 167.578 16.16H181.786V24.128H167.434C168.874 28.448 172.282 30.896 176.362 30.896C178.81 30.896 180.586 30.32 182.17 29.216Z" fill="#FFDD00"/>
<path d="M216.662 38.192H207.59V16.928C207.59 12.56 205.718 10.016 201.926 10.016C198.662 10.016 196.598 12.512 196.598 16.208V38.192H187.526V2.672H196.118V6.224H196.262C197.942 3.536 201.158 2 204.806 2C212.342 2 216.662 6.368 216.662 15.728V38.192Z" fill="#FFDD00"/>
<path d="M234.771 38.192H222.051V2.672H234.147C238.563 2.672 242.067 3.44 244.563 4.832C249.603 7.712 252.771 13.184 252.771 20.432C252.771 32.144 245.859 38.192 234.771 38.192ZM231.123 30.224H235.203C240.435 30.224 243.699 26.96 243.699 20.48C243.699 14.144 240.483 10.64 235.251 10.64H231.123V30.224Z" fill="#FFDD00"/>
</mask>
<g mask="url(#mask0_406_2)">
<path d="M10.688 40.192H2V4.672H21.392V12.64H10.688V18.688H21.008V26.656H10.688V40.192Z" fill="url(#paint0_linear_406_2)"/>
<path d="M53.1613 40.192H42.7933L34.5853 28.72H34.4893V40.192H25.8013V4.672H37.4173C41.1133 4.672 43.9453 5.152 45.8173 5.968C49.6573 7.696 52.3452 11.872 52.3452 16.912C52.3452 22.528 48.9853 27.136 43.5133 28.096L53.1613 40.192ZM34.4893 22.528H37.8493C41.4493 22.528 43.6572 20.848 43.6572 17.44C43.6572 14.368 41.3533 12.64 37.9453 12.64H34.4893V22.528Z" fill="url(#paint1_linear_406_2)"/>
<path d="M74.7654 40.864C64.8774 40.864 55.6134 33.76 55.6134 23.248C55.6134 12.256 63.5334 4 74.3334 4C84.7014 4 93.1014 12.016 93.1014 22.192C93.1014 32.704 84.9414 40.864 74.7654 40.864ZM74.4774 32.896C80.0934 32.896 84.0294 28.144 84.0294 22.48C84.0294 16.912 80.0454 11.968 74.3334 11.968C68.6694 11.968 64.6854 16.72 64.6854 22.336C64.6854 28.192 68.6694 32.896 74.4774 32.896Z" fill="url(#paint2_linear_406_2)"/>
<path d="M127.546 40.192H119.577L106.281 19.936L106.186 19.984V40.192H97.4975V4.672H105.321L118.761 25.648L118.857 25.552V12.64H113.721V4.672H127.546V40.192ZM138.105 40.192H129.034V4.672H144.057V12.64H138.105V40.192Z" fill="url(#paint3_linear_406_2)"/>
<path d="M184.17 31.216V39.808C182.97 40.336 180.138 40.864 177.978 40.864C167.706 40.864 159.738 33.136 159.738 22.528C159.738 10.912 168.234 4 178.362 4C180.666 4 182.346 4.336 184.218 5.056V13.552C182.538 12.592 180.81 11.968 178.314 11.968C174.33 11.968 171.114 14.32 169.578 18.16H183.786V26.128H169.434C170.874 30.448 174.282 32.896 178.362 32.896C180.81 32.896 182.586 32.32 184.17 31.216Z" fill="url(#paint4_linear_406_2)"/>
<path d="M218.662 40.192H209.59V18.928C209.59 14.56 207.718 12.016 203.926 12.016C200.662 12.016 198.598 14.512 198.598 18.208V40.192H189.526V4.672H198.118V8.224H198.262C199.942 5.536 203.158 4 206.806 4C214.342 4 218.662 8.368 218.662 17.728V40.192Z" fill="url(#paint5_linear_406_2)"/>
<path d="M236.771 40.192H224.051V4.672H236.147C240.563 4.672 244.067 5.44 246.563 6.832C251.603 9.712 254.771 15.184 254.771 22.432C254.771 34.144 247.859 40.192 236.771 40.192ZM233.123 32.224H237.203C242.435 32.224 245.699 28.96 245.699 22.48C245.699 16.144 242.483 12.64 237.251 12.64H233.123V32.224Z" fill="url(#paint6_linear_406_2)"/>
</g>
<defs>
<linearGradient id="paint0_linear_406_2" x1="254.771" y1="40.864" x2="254.771" y2="4" gradientUnits="userSpaceOnUse">
<stop stop-color="#FF9900"/>
<stop offset="1" stop-color="#FFDD00"/>
</linearGradient>
<linearGradient id="paint1_linear_406_2" x1="254.771" y1="40.864" x2="254.771" y2="4" gradientUnits="userSpaceOnUse">
<stop stop-color="#FF9900"/>
<stop offset="1" stop-color="#FFDD00"/>
</linearGradient>
<linearGradient id="paint2_linear_406_2" x1="254.771" y1="40.864" x2="254.771" y2="4" gradientUnits="userSpaceOnUse">
<stop stop-color="#FF9900"/>
<stop offset="1" stop-color="#FFDD00"/>
</linearGradient>
<linearGradient id="paint3_linear_406_2" x1="254.771" y1="40.864" x2="254.771" y2="4" gradientUnits="userSpaceOnUse">
<stop stop-color="#FF9900"/>
<stop offset="1" stop-color="#FFDD00"/>
</linearGradient>
<linearGradient id="paint4_linear_406_2" x1="254.771" y1="40.864" x2="254.771" y2="4" gradientUnits="userSpaceOnUse">
<stop stop-color="#FF9900"/>
<stop offset="1" stop-color="#FFDD00"/>
</linearGradient>
<linearGradient id="paint5_linear_406_2" x1="254.771" y1="40.864" x2="254.771" y2="4" gradientUnits="userSpaceOnUse">
<stop stop-color="#FF9900"/>
<stop offset="1" stop-color="#FFDD00"/>
</linearGradient>
<linearGradient id="paint6_linear_406_2" x1="254.771" y1="40.864" x2="254.771" y2="4" gradientUnits="userSpaceOnUse">
<stop stop-color="#FF9900"/>
<stop offset="1" stop-color="#FFDD00"/>
</linearGradient>
</defs>
</svg>
