<svg width="65" height="22" fill="none" xmlns="http://www.w3.org/2000/svg"><path d="m13.68 21.096-4.824-6.048c2.736-.48 4.416-2.784 4.416-5.592 0-2.52-1.344-4.608-3.264-5.472-.936-.408-2.352-.648-4.2-.648H0v17.76h4.344V15.36h.048l4.104 5.736h5.184Zm-9.336-8.832V7.32h1.728c1.704 0 2.856.864 2.856 2.4 0 1.704-1.104 2.544-2.904 2.544h-1.68ZM37.04 21.096V3.336h-4.488l-9.456 13.776h-3.312v-3.264h4.656v-3.696h-4.656V7.32h5.52V3.336H15.44v17.76h9.432l1.776-2.568h5.856v2.568h4.536Zm-4.536-6.168h-3.408l3.36-4.92h.048v4.92ZM51.54 16.608c-.792.552-1.704.84-2.928.84-2.856 0-4.776-2.448-4.776-5.28 0-2.808 1.968-5.184 4.752-5.184 1.248 0 2.112.312 2.952.792V3.528C50.604 3.192 49.764 3 48.612 3 43.356 3 39.3 6.888 39.3 12.192c0 4.872 3.792 9.24 9.12 9.24 1.08 0 2.52-.264 3.12-.528v-4.296ZM60.866 21.096V7.32h3.48V3.336h-11.52V7.32h3.504v13.776h4.536Z" fill="#03A"/><path d="m13.68 19.096-4.824-6.048c2.736-.48 4.416-2.784 4.416-5.592 0-2.52-1.344-4.608-3.264-5.472-.936-.408-2.352-.648-4.2-.648H0v17.76h4.344V13.36h.048l4.104 5.736h5.184Zm-9.336-8.832V5.32h1.728c1.704 0 2.856.864 2.856 2.4 0 1.704-1.104 2.544-2.904 2.544h-1.68ZM37.04 19.096V1.336h-4.488l-9.456 13.776h-3.312v-3.264h4.656V8.152h-4.656V5.32h5.52V1.336H15.44v17.76h9.432l1.776-2.568h5.856v2.568h4.536Zm-4.536-6.168h-3.408l3.36-4.92h.048v4.92ZM51.54 14.608c-.792.552-1.704.84-2.928.84-2.856 0-4.776-2.448-4.776-5.28 0-2.808 1.968-5.184 4.752-5.184 1.248 0 2.112.312 2.952.792V1.528C50.604 1.192 49.764 1 48.612 1 43.356 1 39.3 4.888 39.3 10.192c0 4.872 3.792 9.24 9.12 9.24 1.08 0 2.52-.264 3.12-.528v-4.296ZM60.866 19.096V5.32h3.48V1.336h-11.52V5.32h3.504v13.776h4.536Z" fill="#1CE"/><mask id="a" style="mask-type:alpha" maskUnits="userSpaceOnUse" x="0" y="1" width="65" height="19"><path d="m13.68 19.096-4.824-6.048c2.736-.48 4.416-2.784 4.416-5.592 0-2.52-1.344-4.608-3.264-5.472-.936-.408-2.352-.648-4.2-.648H0v17.76h4.344V13.36h.048l4.104 5.736h5.184Zm-9.336-8.832V5.32h1.728c1.704 0 2.856.864 2.856 2.4 0 1.704-1.104 2.544-2.904 2.544h-1.68ZM37.04 19.096V1.336h-4.488l-9.456 13.776h-3.312v-3.264h4.656V8.152h-4.656V5.32h5.52V1.336H15.44v17.76h9.432l1.776-2.568h5.856v2.568h4.536Zm-4.536-6.168h-3.408l3.36-4.92h.048v4.92ZM51.54 14.608c-.792.552-1.704.84-2.928.84-2.856 0-4.776-2.448-4.776-5.28 0-2.808 1.968-5.184 4.752-5.184 1.248 0 2.112.312 2.952.792V1.528C50.604 1.192 49.764 1 48.612 1 43.356 1 39.3 4.888 39.3 10.192c0 4.872 3.792 9.24 9.12 9.24 1.08 0 2.52-.264 3.12-.528v-4.296ZM60.866 19.096V5.32h3.48V1.336h-11.52V5.32h3.504v13.776h4.536Z" fill="#000"/></mask><g mask="url(#a)"><path d="m14.68 20.096-4.824-6.048c2.736-.48 4.416-2.784 4.416-5.592 0-2.52-1.344-4.608-3.264-5.472-.936-.408-2.352-.648-4.2-.648H1v17.76h4.344V14.36h.048l4.104 5.736h5.184Zm-9.336-8.832V6.32h1.728c1.704 0 2.856.864 2.856 2.4 0 1.704-1.104 2.544-2.904 2.544h-1.68Z" fill="url(#b)"/><path d="M38.04 20.096V2.336h-4.488l-9.456 13.776h-3.312v-3.264h4.656V9.152h-4.656V6.32h5.52V2.336H16.44v17.76h9.432l1.776-2.568h5.856v2.568h4.536Zm-4.536-6.168h-3.408l3.36-4.92h.048v4.92Z" fill="url(#c)"/><path d="M52.54 15.608c-.792.552-1.704.84-2.928.84-2.856 0-4.776-2.448-4.776-5.28 0-2.808 1.968-5.184 4.752-5.184 1.248 0 2.112.312 2.952.792V2.528C51.604 2.192 50.764 2 49.612 2 44.356 2 40.3 5.888 40.3 11.192c0 4.872 3.792 9.24 9.12 9.24 1.08 0 2.52-.264 3.12-.528v-4.296Z" fill="url(#d)"/><path d="M61.866 20.096V6.32h3.48V2.336h-11.52V6.32h3.504v13.776h4.536Z" fill="url(#e)"/></g><defs><linearGradient id="b" x1="65.346" y1="20.432" x2="65.346" y2="2" gradientUnits="userSpaceOnUse"><stop stop-color="#16D"/><stop offset="1" stop-color="#1CE"/></linearGradient><linearGradient id="c" x1="65.346" y1="20.432" x2="65.346" y2="2" gradientUnits="userSpaceOnUse"><stop stop-color="#16D"/><stop offset="1" stop-color="#1CE"/></linearGradient><linearGradient id="d" x1="65.346" y1="20.432" x2="65.346" y2="2" gradientUnits="userSpaceOnUse"><stop stop-color="#16D"/><stop offset="1" stop-color="#1CE"/></linearGradient><linearGradient id="e" x1="65.346" y1="20.432" x2="65.346" y2="2" gradientUnits="userSpaceOnUse"><stop stop-color="#16D"/><stop offset="1" stop-color="#1CE"/></linearGradient></defs></svg>