<svg width="135" height="22" fill="none" xmlns="http://www.w3.org/2000/svg"><path d="M8.04 21.096V7.32h3.48V3.336H0V7.32h3.504v13.776H8.04ZM21.9041 21.096V14.64l5.256-11.304h-4.872l-2.664 7.128-2.64-7.128h-4.92l5.304 11.304v6.456h4.536ZM33.0992 21.096v-5.568h2.112c5.088 0 6.912-2.904 6.912-6.192 0-2.4-1.2-4.44-3.12-5.328-.936-.432-2.352-.696-4.248-.672h-6v17.76h4.344Zm0-9.552V7.32h1.776c2.016 0 2.904.648 2.904 2.088 0 1.512-.912 2.136-2.736 2.136h-1.944ZM55.7377 16.608c-.792.552-1.68.84-2.904.84-2.04 0-3.744-1.224-4.464-3.384h7.176V10.08h-7.104c.7681-1.92 2.376-3.096 4.368-3.096 1.2481 0 2.112.312 2.952.792V3.528c-.936-.36-1.776-.528-2.928-.528-5.064 0-9.312 3.456-9.312 9.264 0 5.304 3.984 9.168 9.1201 9.168 1.0799 0 2.4959-.264 3.0959-.528v-4.296ZM69.8638 8.52c-.024-2.376-.936-3.792-2.832-4.776-.936-.48-1.968-.744-3.144-.744-3.264 0-6.192 2.208-6.192 5.232 0 2.304 1.32 3.84 4.224 5.016 1.608.648 3.576 1.272 3.576 2.688 0 .96-.768 1.704-1.704 1.704-1.128 0-1.848-.96-1.872-2.424h-4.512v.384c0 3.816 2.544 5.832 6.408 5.832 3.84 0 6.192-2.016 6.192-5.448 0-2.328-.984-3.744-4.896-5.424-1.944-.84-2.904-1.32-2.904-2.376 0-.792.72-1.392 1.56-1.392.888 0 1.416.456 1.608 1.728h4.488ZM83.4536 16.608c-.792.552-1.704.84-2.928.84-2.856 0-4.776-2.448-4.776-5.28 0-2.808 1.968-5.184 4.752-5.184 1.248 0 2.112.312 2.952.792V3.528c-.936-.336-1.776-.528-2.928-.528-5.256 0-9.312 3.888-9.312 9.192 0 4.872 3.792 9.24 9.12 9.24 1.08 0 2.52-.264 3.12-.528v-4.296ZM99.7877 21.096l-4.824-6.048c2.736-.48 4.416-2.784 4.416-5.592 0-2.52-1.344-4.608-3.264-5.472-.936-.408-2.352-.648-4.2-.648h-5.808v17.76h4.344V15.36h.048l4.104 5.736h5.184Zm-9.336-8.832V7.32h1.728c1.704 0 2.856.864 2.856 2.4 0 1.704-1.104 2.544-2.904 2.544h-1.68ZM106.083 21.096V3.336h-4.536v17.76h4.536ZM113.409 21.096v-5.568h2.112c5.088 0 6.912-2.904 6.912-6.192 0-2.4-1.2-4.44-3.12-5.328-.936-.432-2.352-.696-4.248-.672h-6v17.76h4.344Zm0-9.552V7.32h1.776c2.016 0 2.904.648 2.904 2.088 0 1.512-.912 2.136-2.736 2.136h-1.944ZM130.755 21.096V7.32h3.48V3.336h-11.52V7.32h3.504v13.776h4.536Z" fill="#03A"/><path d="M8.04 19.096V5.32h3.48V1.336H0V5.32h3.504v13.776H8.04ZM21.9041 19.096V12.64l5.256-11.304h-4.872l-2.664 7.128-2.64-7.128h-4.92l5.304 11.304v6.456h4.536ZM33.0992 19.096v-5.568h2.112c5.088 0 6.912-2.904 6.912-6.192 0-2.4-1.2-4.44-3.12-5.328-.936-.432-2.352-.696-4.248-.672h-6v17.76h4.344Zm0-9.552V5.32h1.776c2.016 0 2.904.648 2.904 2.088 0 1.512-.912 2.136-2.736 2.136h-1.944ZM55.7377 14.608c-.792.552-1.68.84-2.904.84-2.04 0-3.744-1.224-4.464-3.384h7.176V8.08h-7.104c.7681-1.92 2.376-3.096 4.368-3.096 1.2481 0 2.112.312 2.952.792V1.528c-.936-.36-1.776-.528-2.928-.528-5.064 0-9.312 3.456-9.312 9.264 0 5.304 3.984 9.168 9.1201 9.168 1.0799 0 2.4959-.264 3.0959-.528v-4.296ZM69.8638 6.52c-.024-2.376-.936-3.792-2.832-4.776-.936-.48-1.968-.744-3.144-.744-3.264 0-6.192 2.208-6.192 5.232 0 2.304 1.32 3.84 4.224 5.016 1.608.648 3.576 1.272 3.576 2.688 0 .96-.768 1.704-1.704 1.704-1.128 0-1.848-.96-1.872-2.424h-4.512v.384c0 3.816 2.544 5.832 6.408 5.832 3.84 0 6.192-2.016 6.192-5.448 0-2.328-.984-3.744-4.896-5.424-1.944-.84-2.904-1.32-2.904-2.376 0-.792.72-1.392 1.56-1.392.888 0 1.416.456 1.608 1.728h4.488ZM83.4536 14.608c-.792.552-1.704.84-2.928.84-2.856 0-4.776-2.448-4.776-5.28 0-2.808 1.968-5.184 4.752-5.184 1.248 0 2.112.312 2.952.792V1.528c-.936-.336-1.776-.528-2.928-.528-5.256 0-9.312 3.888-9.312 9.192 0 4.872 3.792 9.24 9.12 9.24 1.08 0 2.52-.264 3.12-.528v-4.296ZM99.7877 19.096l-4.824-6.048c2.736-.48 4.416-2.784 4.416-5.592 0-2.52-1.344-4.608-3.264-5.472-.936-.408-2.352-.648-4.2-.648h-5.808v17.76h4.344V13.36h.048l4.104 5.736h5.184Zm-9.336-8.832V5.32h1.728c1.704 0 2.856.864 2.856 2.4 0 1.704-1.104 2.544-2.904 2.544h-1.68ZM106.083 19.096V1.336h-4.536v17.76h4.536ZM113.409 19.096v-5.568h2.112c5.088 0 6.912-2.904 6.912-6.192 0-2.4-1.2-4.44-3.12-5.328-.936-.432-2.352-.696-4.248-.672h-6v17.76h4.344Zm0-9.552V5.32h1.776c2.016 0 2.904.648 2.904 2.088 0 1.512-.912 2.136-2.736 2.136h-1.944ZM130.755 19.096V5.32h3.48V1.336h-11.52V5.32h3.504v13.776h4.536Z" fill="#1CE"/><mask id="a" style="mask-type:alpha" maskUnits="userSpaceOnUse" x="0" y="1" width="135" height="19"><path d="M8.04 19.096V5.32h3.48V1.336H0V5.32h3.504v13.776H8.04ZM21.9041 19.096V12.64l5.256-11.304h-4.872l-2.664 7.128-2.64-7.128h-4.92l5.304 11.304v6.456h4.536ZM33.0992 19.096v-5.568h2.112c5.088 0 6.912-2.904 6.912-6.192 0-2.4-1.2-4.44-3.12-5.328-.936-.432-2.352-.696-4.248-.672h-6v17.76h4.344Zm0-9.552V5.32h1.776c2.016 0 2.904.648 2.904 2.088 0 1.512-.912 2.136-2.736 2.136h-1.944ZM55.7377 14.608c-.792.552-1.68.84-2.904.84-2.04 0-3.744-1.224-4.464-3.384h7.176V8.08h-7.104c.7681-1.92 2.376-3.096 4.368-3.096 1.2481 0 2.112.312 2.952.792V1.528c-.936-.36-1.776-.528-2.928-.528-5.064 0-9.312 3.456-9.312 9.264 0 5.304 3.984 9.168 9.1201 9.168 1.0799 0 2.4959-.264 3.0959-.528v-4.296ZM69.8638 6.52c-.024-2.376-.936-3.792-2.832-4.776-.936-.48-1.968-.744-3.144-.744-3.264 0-6.192 2.208-6.192 5.232 0 2.304 1.32 3.84 4.224 5.016 1.608.648 3.576 1.272 3.576 2.688 0 .96-.768 1.704-1.704 1.704-1.128 0-1.848-.96-1.872-2.424h-4.512v.384c0 3.816 2.544 5.832 6.408 5.832 3.84 0 6.192-2.016 6.192-5.448 0-2.328-.984-3.744-4.896-5.424-1.944-.84-2.904-1.32-2.904-2.376 0-.792.72-1.392 1.56-1.392.888 0 1.416.456 1.608 1.728h4.488ZM83.4536 14.608c-.792.552-1.704.84-2.928.84-2.856 0-4.776-2.448-4.776-5.28 0-2.808 1.968-5.184 4.752-5.184 1.248 0 2.112.312 2.952.792V1.528c-.936-.336-1.776-.528-2.928-.528-5.256 0-9.312 3.888-9.312 9.192 0 4.872 3.792 9.24 9.12 9.24 1.08 0 2.52-.264 3.12-.528v-4.296ZM99.7877 19.096l-4.824-6.048c2.736-.48 4.416-2.784 4.416-5.592 0-2.52-1.344-4.608-3.264-5.472-.936-.408-2.352-.648-4.2-.648h-5.808v17.76h4.344V13.36h.048l4.104 5.736h5.184Zm-9.336-8.832V5.32h1.728c1.704 0 2.856.864 2.856 2.4 0 1.704-1.104 2.544-2.904 2.544h-1.68ZM106.083 19.096V1.336h-4.536v17.76h4.536ZM113.409 19.096v-5.568h2.112c5.088 0 6.912-2.904 6.912-6.192 0-2.4-1.2-4.44-3.12-5.328-.936-.432-2.352-.696-4.248-.672h-6v17.76h4.344Zm0-9.552V5.32h1.776c2.016 0 2.904.648 2.904 2.088 0 1.512-.912 2.136-2.736 2.136h-1.944ZM130.755 19.096V5.32h3.48V1.336h-11.52V5.32h3.504v13.776h4.536Z" fill="#000"/></mask><g mask="url(#a)"><path d="M9.04 20.096V6.32h3.48V2.336H1V6.32h3.504v13.776H9.04Z" fill="url(#b)"/><path d="M22.9041 20.096V13.64l5.256-11.304h-4.872l-2.664 7.128-2.64-7.128h-4.92l5.304 11.304v6.456h4.536Z" fill="url(#c)"/><path d="M34.0992 20.096v-5.568h2.112c5.088 0 6.912-2.904 6.912-6.192 0-2.4-1.2-4.44-3.12-5.328-.936-.432-2.352-.696-4.248-.672h-6v17.76h4.344Zm0-9.552V6.32h1.776c2.016 0 2.904.648 2.904 2.088 0 1.512-.912 2.136-2.736 2.136h-1.944Z" fill="url(#d)"/><path d="M56.7377 15.608c-.792.552-1.68.84-2.904.84-2.04 0-3.744-1.224-4.464-3.384h7.176V9.08h-7.104c.7681-1.92 2.376-3.096 4.368-3.096 1.2481 0 2.112.312 2.952.792V2.528c-.936-.36-1.776-.528-2.928-.528-5.064 0-9.312 3.456-9.312 9.264 0 5.304 3.984 9.168 9.1201 9.168 1.0799 0 2.4959-.264 3.0959-.528v-4.296Z" fill="url(#e)"/><path d="M70.8638 7.52c-.024-2.376-.936-3.792-2.832-4.776-.936-.48-1.968-.744-3.144-.744-3.264 0-6.192 2.208-6.192 5.232 0 2.304 1.32 3.84 4.224 5.016 1.608.648 3.576 1.272 3.576 2.688 0 .96-.768 1.704-1.704 1.704-1.128 0-1.848-.96-1.872-2.424h-4.512v.384c0 3.816 2.544 5.832 6.408 5.832 3.84 0 6.192-2.016 6.192-5.448 0-2.328-.984-3.744-4.896-5.424-1.944-.84-2.904-1.32-2.904-2.376 0-.792.72-1.392 1.56-1.392.888 0 1.416.456 1.608 1.728h4.488Z" fill="url(#f)"/><path d="M84.4536 15.608c-.792.552-1.704.84-2.928.84-2.856 0-4.776-2.448-4.776-5.28 0-2.808 1.968-5.184 4.752-5.184 1.248 0 2.112.312 2.952.792V2.528c-.936-.336-1.776-.528-2.928-.528-5.256 0-9.312 3.888-9.312 9.192 0 4.872 3.792 9.24 9.12 9.24 1.08 0 2.52-.264 3.12-.528v-4.296Z" fill="url(#g)"/><path d="m100.788 20.096-4.8243-6.048c2.736-.48 4.4163-2.784 4.4163-5.592 0-2.52-1.3443-4.608-3.2643-5.472-.936-.408-2.352-.648-4.2-.648h-5.808v17.76h4.344V14.36h.048l4.104 5.736h5.1843Zm-9.3363-8.832V6.32h1.728c1.704 0 2.856.864 2.856 2.4 0 1.704-1.104 2.544-2.904 2.544h-1.68Z" fill="url(#h)"/><path d="M107.083 20.096V2.336h-4.536v17.76h4.536Z" fill="url(#i)"/><path d="M114.409 20.096v-5.568h2.112c5.088 0 6.912-2.904 6.912-6.192 0-2.4-1.2-4.44-3.12-5.328-.936-.432-2.352-.696-4.248-.672h-6v17.76h4.344Zm0-9.552V6.32h1.776c2.016 0 2.904.648 2.904 2.088 0 1.512-.912 2.136-2.736 2.136h-1.944Z" fill="url(#j)"/><path d="M131.755 20.096V6.32h3.48V2.336h-11.52V6.32h3.504v13.776h4.536Z" fill="url(#k)"/></g><defs><linearGradient id="b" x1="135.235" y1="20.432" x2="135.235" y2="2" gradientUnits="userSpaceOnUse"><stop stop-color="#16D"/><stop offset="1" stop-color="#1CE"/></linearGradient><linearGradient id="c" x1="135.235" y1="20.432" x2="135.235" y2="2" gradientUnits="userSpaceOnUse"><stop stop-color="#16D"/><stop offset="1" stop-color="#1CE"/></linearGradient><linearGradient id="d" x1="135.235" y1="20.432" x2="135.235" y2="2" gradientUnits="userSpaceOnUse"><stop stop-color="#16D"/><stop offset="1" stop-color="#1CE"/></linearGradient><linearGradient id="e" x1="135.235" y1="20.432" x2="135.235" y2="2" gradientUnits="userSpaceOnUse"><stop stop-color="#16D"/><stop offset="1" stop-color="#1CE"/></linearGradient><linearGradient id="f" x1="135.235" y1="20.432" x2="135.235" y2="2" gradientUnits="userSpaceOnUse"><stop stop-color="#16D"/><stop offset="1" stop-color="#1CE"/></linearGradient><linearGradient id="g" x1="135.235" y1="20.432" x2="135.235" y2="2" gradientUnits="userSpaceOnUse"><stop stop-color="#16D"/><stop offset="1" stop-color="#1CE"/></linearGradient><linearGradient id="h" x1="135.235" y1="20.432" x2="135.235" y2="2" gradientUnits="userSpaceOnUse"><stop stop-color="#16D"/><stop offset="1" stop-color="#1CE"/></linearGradient><linearGradient id="i" x1="135.235" y1="20.432" x2="135.235" y2="2" gradientUnits="userSpaceOnUse"><stop stop-color="#16D"/><stop offset="1" stop-color="#1CE"/></linearGradient><linearGradient id="j" x1="135.235" y1="20.432" x2="135.235" y2="2" gradientUnits="userSpaceOnUse"><stop stop-color="#16D"/><stop offset="1" stop-color="#1CE"/></linearGradient><linearGradient id="k" x1="135.235" y1="20.432" x2="135.235" y2="2" gradientUnits="userSpaceOnUse"><stop stop-color="#16D"/><stop offset="1" stop-color="#1CE"/></linearGradient></defs></svg>